<svg viewBox="0 0 500 500" xmlns="http://www.w3.org/2000/svg"><path fill-rule="evenodd" d="M352.504.09c.21-.01.42-.02.64-.02 5.89-.23 11.08 1.06 16.38 3.76 2.08 1.06 4.02 2.42 5.75 4.03 2.67 2.53 5.65 6 8.2 8.73 5.68 6.07 11.41 12.12 17.18 18.13l.11.11c17.8 18.34 35.5 36.8 53.08 55.38l.01.01c8.25 8.71 16.57 17.36 24.95 25.95 8.41 8.68 15.34 13.616 19.23 25.68 3.34 10.98 2.31 22.87-2.87 33.07l-.03.05c-4.71 9.3-19.32 21.7-27.03 29.68l-.03.02 -46.57 48.35 -.13.13 -31.04 32.66c-8.84 9.27-12.65 16.24-25.06 20.16 -33.89 10.7-53.77-30.45-33.11-57.27l.01-.03c3.31-4.32 9.71-10.49 11.84-14.57 3.5-6.73 4.16-14.65 1.81-21.89l-.17-.5c-2.63-8.06-8.7-14.45-16.49-17.34 -1.99-.74-6.33-1.87-12.27-2.21 -10.29-.6-30.98.16-35.79.85 -19.49 2.62-36.81 10.6-51.1 24.708h-.01c-26.74 26.38-29.76 61.25-28.99 96.53 .2 9.49-.59 21.99-1.94 31.58 -.02.08-.03.17-.04.25 -4.18 31.95-16 62.34-34.41 88.47 -.13.18-.26.36-.38.54 -2.71 4.04-6.7 8.32-9.93 11.92l-.1.1c-22.1 24.95-51.19 42.26-83.28 49.55 -6.97 1.52-11.33 1.67-17.94 2.4 -.1 0-.19.01-.28.02 -12.91 1.54-26.85 1.32-37.82-6.42 -8.95-6.42-13.31-15.02-14.68-25.92l-.01-.01c-1.25-9.91.8-19.06 6.31-27.4l.02-.05c5.95-9.07 15.65-14.8 26.29-15.55 9.09-.64 16.66.33 26-1.74 13.53-2.82 24.79-9.17 35.1-18.36v-.01c28.32-25.25 31.37-60.07 30.68-95.36v-.01c-.24-11.68.82-24.92 2.66-36.54l0-.04c4.28-27.34 14.19-53.42 29.06-76.53 27.06-41.96 69.43-70.63 118.42-76.6 7.42-.9 14.89-1.38 22.37-1.43 5.27-.03 24.15-.14 28.07-.95 6.8-1.42 12.82-5.47 16.8-11.3 3.62-5.31 5-10.59 5.19-15.64 .22-6.19-.75-13.42-7.9-21.07l-.06-.06c-2.92-3.11-5.84-6.19-8.42-9.59 -4.34-5.73-7.35-13.86-7.7-21.13l-.01-.01c-.44-8.92 2.9-19.72 8.62-26.54C337.45 4.3 343.77.53 352.14-.28l.09.09Z"/></svg>