<svg viewBox="0 0 500 500" xmlns="http://www.w3.org/2000/svg"><defs><clipPath id="a"><path d="M0 0h500v500H0Z"/></clipPath></defs><g clip-path="url(#a)"><path fill="#820EFF" d="M121.99 0h255.97c67.37 0 121.99 54.61 121.99 121.99v255.97c0 67.37-54.62 121.99-121.99 121.99H121.98C54.6 499.95-.01 445.33-.01 377.96V121.98C-.01 54.6 54.6-.01 121.98-.01Z"/><path fill="#FFF" fill-rule="evenodd" d="M317.65 85.06c.14-.01.28-.01.42-.02 3.89-.15 7.31.7 10.81 2.48 1.37.7 2.65 1.6 3.79 2.66 1.76 1.67 3.73 3.96 5.41 5.76 3.75 4 7.53 8 11.34 11.96l.07.07c11.75 12.1 23.43 24.29 35.03 36.55l0 0c5.44 5.75 10.93 11.46 16.46 17.131 5.55 5.73 10.12 8.98 12.69 16.95 2.2 7.25 1.52 15.09-1.9 21.83l-.02.03c-3.11 6.13-12.75 14.32-17.84 19.59l-.02.01 -30.74 31.91 -.09.08 -20.49 21.55c-5.83 6.12-8.35 10.72-16.54 13.3 -22.37 7.06-35.49-20.1-21.85-37.8l.01-.02c2.18-2.85 6.41-6.93 7.81-9.62 2.31-4.45 2.75-9.67 1.19-14.45l-.11-.33c-1.74-5.32-5.74-9.54-10.89-11.45 -1.31-.49-4.18-1.23-8.1-1.46 -6.79-.4-20.45.1-23.62.56 -12.87 1.73-24.3 7-33.73 16.3h-.01c-17.65 17.41-19.64 40.42-19.13 63.71 .13 6.26-.39 14.51-1.28 20.84 -.01.05-.02.11-.03.17 -2.76 21.08-10.56 41.14-22.71 58.39 -.09.12-.17.23-.26.36 -1.79 2.66-4.43 5.49-6.56 7.87l-.07.07c-14.58 16.46-33.79 27.89-54.964 32.7 -4.6 1-7.48 1.1-11.84 1.58 -.07 0-.13.01-.19.02 -8.515 1.02-17.717.87-24.96-4.24 -5.91-4.24-8.78-9.92-9.69-17.11l-.01-.01c-.83-6.54.53-12.58 4.16-18.09l.01-.04c3.92-5.99 10.33-9.77 17.35-10.26 6.006-.42 10.99.22 17.16-1.15 8.93-1.86 16.36-6.05 23.17-12.12v-.01c18.69-16.67 20.7-39.65 20.25-62.935v-.01c-.16-7.71.54-16.45 1.75-24.12l0-.03c2.82-18.04 9.36-35.26 19.18-50.51 17.863-27.69 45.82-46.62 78.16-50.56 4.9-.6 9.83-.91 14.76-.95 3.48-.02 15.94-.09 18.52-.63 4.49-.94 8.46-3.61 11.09-7.46 2.39-3.51 3.3-6.99 3.42-10.32 .14-4.08-.49-8.86-5.21-13.91l-.04-.04c-1.93-2.05-3.85-4.08-5.56-6.33 -2.86-3.78-4.85-9.15-5.08-13.95l-.01-.01c-.29-5.89 1.91-13.02 5.69-17.52 3.8-4.3 7.97-6.78 13.5-7.32l.06.06Z"/></g></svg>
